# xmcd
#
# Track frame offsets:
#	150
#	14135
#	26905
#	40900
#	50440
#	58295
#	70305
#	81800
#	94270
#	106155
#	115630
#	130062
#	140705
#	162825
#	173840
#
# Disc length: 2460 seconds
#
# Revision: 0
# Processed by: cddbd v1.5.2PL0 Copyright (c) Steve Scherf et al.
# Submitted via: audiograbber 1.83.01
#
DISCID=d3099a0f
DTITLE=MS® - Idolos Infantiles Chabelo Y Cepillin 2.2
DYEAR=1987
DGENRE=Pop
TTITLE0=Cepillin - La Feria De Cepillin
TTITLE1=Cepillin - La Gallinita Co Co Ua
TTITLE2=Chabelo - Los Juguetes
TTITLE3=Cepillin - Tomas
TTITLE4=Cepillin - Pin Pon
TTITLE5=Chabelo - Rock Del Bebe
TTITLE6=Cepillin - El Circo De Cepillin
TTITLE7=Cepillin - El Pingo Colorado
TTITLE8=Chabelo - Que Trafico Compadre
TTITLE9=Cepillin - Martinillo
TTITLE10=Cepillin - La Carcachita Roja
TTITLE11=Chabelo - Tilin Feliz
TTITLE12=Cepillin - Matarile-Lire-Ron
TTITLE13=Cepillin - Yo Tenia Diez Perritos
TTITLE14=Chabelo - Cha Cha Cha De Navidad
EXTD=MS®
EXTT0=
EXTT1=
EXTT2=
EXTT3=
EXTT4=
EXTT5=
EXTT6=
EXTT7=
EXTT8=
EXTT9=
EXTT10=
EXTT11=
EXTT12=
EXTT13=
EXTT14=
PLAYORDER=
